<svg width="200" height="200" viewBox="0 0 200 200" fill="none" xmlns="http://www.w3.org/2000/svg">
<circle cx="100" cy="100" r="100" fill="black"/>
<path d="M30.8125 106.133V107H17.1953V106.133H18.3203C19.6328 106.133 20.5859 105.75 21.1797 104.984C21.5547 104.484 21.7422 103.281 21.7422 101.375V80.8438C21.7422 79.2344 21.6406 78.1719 21.4375 77.6562C21.2812 77.2656 20.9609 76.9297 20.4766 76.6484C19.7891 76.2734 19.0703 76.0859 18.3203 76.0859H17.1953V75.2188H30.8125V76.0859H29.6641C28.3672 76.0859 27.4219 76.4688 26.8281 77.2344C26.4375 77.7344 26.2422 78.9375 26.2422 80.8438V101.375C26.2422 102.984 26.3438 104.047 26.5469 104.562C26.7031 104.953 27.0312 105.289 27.5312 105.57C28.2031 105.945 28.9141 106.133 29.6641 106.133H30.8125ZM84.3025 75.2188V76.0859C83.1775 76.2891 82.3259 76.6484 81.7478 77.1641C80.9197 77.9297 80.1853 79.1016 79.5447 80.6797L68.4587 107.727H67.5916L55.6853 80.3281C55.0759 78.9219 54.6462 78.0625 54.3962 77.75C54.0056 77.2656 53.5212 76.8906 52.9431 76.625C52.3806 76.3438 51.615 76.1641 50.6462 76.0859V75.2188H63.6306V76.0859C62.1619 76.2266 61.2087 76.4766 60.7712 76.8359C60.3337 77.1953 60.115 77.6562 60.115 78.2188C60.115 79 60.4744 80.2188 61.1931 81.875L69.2791 100.508L76.7791 82.1094C77.5134 80.2969 77.8806 79.0391 77.8806 78.3359C77.8806 77.8828 77.6541 77.4531 77.2009 77.0469C76.7478 76.625 75.9822 76.3281 74.9041 76.1562C74.8259 76.1406 74.6931 76.1172 74.5056 76.0859V75.2188H84.3025ZM113.183 76.9531V89.5156H120.167C121.98 89.5156 123.191 89.2422 123.8 88.6953C124.613 87.9766 125.066 86.7109 125.16 84.8984H126.027V95.9609H125.16C124.941 94.4141 124.722 93.4219 124.503 92.9844C124.222 92.4375 123.761 92.0078 123.121 91.6953C122.48 91.3828 121.496 91.2266 120.167 91.2266H113.183V101.703C113.183 103.109 113.246 103.969 113.371 104.281C113.496 104.578 113.714 104.82 114.027 105.008C114.339 105.18 114.933 105.266 115.808 105.266H121.199C122.996 105.266 124.3 105.141 125.113 104.891C125.925 104.641 126.707 104.148 127.457 103.414C128.425 102.445 129.417 100.984 130.433 99.0312H131.371L128.628 107H104.136V106.133H105.261C106.011 106.133 106.722 105.953 107.394 105.594C107.894 105.344 108.23 104.969 108.402 104.469C108.589 103.969 108.683 102.945 108.683 101.398V80.75C108.683 78.7344 108.48 77.4922 108.074 77.0234C107.511 76.3984 106.574 76.0859 105.261 76.0859H104.136V75.2188H128.628L128.98 82.1797H128.066C127.738 80.5078 127.371 79.3594 126.964 78.7344C126.574 78.1094 125.988 77.6328 125.207 77.3047C124.582 77.0703 123.48 76.9531 121.902 76.9531H113.183ZM178.251 98.2109L179.025 98.375L176.306 107H151.697V106.133H152.892C154.236 106.133 155.197 105.695 155.775 104.82C156.103 104.32 156.267 103.164 156.267 101.352V80.8438C156.267 78.8594 156.048 77.6172 155.611 77.1172C155.001 76.4297 154.095 76.0859 152.892 76.0859H151.697V75.2188H166.087V76.0859C164.4 76.0703 163.212 76.2266 162.525 76.5547C161.853 76.8828 161.392 77.2969 161.142 77.7969C160.892 78.2969 160.767 79.4922 160.767 81.3828V101.352C160.767 102.648 160.892 103.539 161.142 104.023C161.329 104.352 161.618 104.594 162.009 104.75C162.4 104.906 163.618 104.984 165.665 104.984H167.986C170.423 104.984 172.134 104.805 173.118 104.445C174.103 104.086 175.001 103.453 175.814 102.547C176.626 101.625 177.439 100.18 178.251 98.2109Z" fill="white"/>
<line x1="16" y1="118.85" x2="178" y2="118.85" stroke="white" stroke-width="0.3"/>
<path d="M16.6973 125.492V125.365H18.6831V125.492H18.5156C18.3265 125.492 18.1886 125.548 18.1021 125.659C18.0474 125.732 18.02 125.908 18.02 126.186V128.452C18.02 128.8 17.9813 129.083 17.9038 129.299C17.8286 129.516 17.6976 129.705 17.5107 129.867C17.3239 130.026 17.0983 130.106 16.834 130.106C16.6198 130.106 16.4512 130.054 16.3281 129.949C16.2051 129.842 16.1436 129.72 16.1436 129.583C16.1436 129.471 16.172 129.387 16.229 129.33C16.3042 129.259 16.3919 129.224 16.4922 129.224C16.5651 129.224 16.63 129.248 16.687 129.296C16.7463 129.344 16.8203 129.471 16.9092 129.679C16.9616 129.802 17.0288 129.863 17.1108 129.863C17.1724 129.863 17.2293 129.826 17.2817 129.75C17.3364 129.675 17.3638 129.542 17.3638 129.351V126.186C17.3638 125.951 17.349 125.796 17.3193 125.721C17.2965 125.664 17.2487 125.615 17.1758 125.574C17.0778 125.519 16.9741 125.492 16.8647 125.492H16.6973ZM23.6904 125.618V127.45H24.709C24.9733 127.45 25.1499 127.41 25.2388 127.331C25.3573 127.226 25.4233 127.041 25.437 126.777H25.5635V128.39H25.437C25.4051 128.165 25.3732 128.02 25.3413 127.956C25.3003 127.876 25.2331 127.814 25.1396 127.768C25.0462 127.722 24.9027 127.7 24.709 127.7H23.6904V129.228C23.6904 129.433 23.6995 129.558 23.7178 129.604C23.736 129.647 23.7679 129.682 23.8135 129.709C23.859 129.735 23.9456 129.747 24.0732 129.747H24.8594C25.1214 129.747 25.3117 129.729 25.4302 129.692C25.5487 129.656 25.6626 129.584 25.772 129.477C25.9132 129.336 26.0579 129.123 26.2061 128.838H26.3428L25.9429 130H22.3711V129.874H22.5352C22.6445 129.874 22.7482 129.847 22.8462 129.795C22.9191 129.758 22.9681 129.704 22.9932 129.631C23.0205 129.558 23.0342 129.409 23.0342 129.183V126.172C23.0342 125.878 23.0046 125.697 22.9453 125.628C22.8633 125.537 22.7266 125.492 22.5352 125.492H22.3711V125.365H25.9429L25.9941 126.38H25.8608C25.813 126.137 25.7594 125.969 25.7002 125.878C25.6432 125.787 25.5578 125.717 25.4438 125.669C25.3527 125.635 25.1921 125.618 24.9619 125.618H23.6904ZM36.5591 125.365V125.492C36.4383 125.492 36.3403 125.513 36.2651 125.557C36.1899 125.6 36.1182 125.681 36.0498 125.799C36.0042 125.879 35.9325 126.069 35.8345 126.37L34.5425 130.106H34.4058L33.3496 127.143L32.3003 130.106H32.1772L30.7998 126.257C30.6973 125.97 30.6323 125.8 30.605 125.748C30.5594 125.661 30.4967 125.598 30.417 125.557C30.3395 125.513 30.2336 125.492 30.0991 125.492V125.365H31.8149V125.492H31.7329C31.6121 125.492 31.5199 125.519 31.4561 125.574C31.3923 125.628 31.3604 125.694 31.3604 125.772C31.3604 125.852 31.4105 126.035 31.5107 126.322L32.4233 128.923L33.1924 126.712L33.0557 126.322L32.9463 126.011C32.8984 125.897 32.8449 125.797 32.7856 125.71C32.756 125.667 32.7196 125.631 32.6763 125.601C32.6193 125.56 32.5623 125.53 32.5054 125.512C32.4621 125.499 32.3937 125.492 32.3003 125.492V125.365H34.105V125.492H33.9819C33.8543 125.492 33.7609 125.519 33.7017 125.574C33.6424 125.628 33.6128 125.702 33.6128 125.796C33.6128 125.912 33.6641 126.115 33.7666 126.404L34.6553 128.923L35.5371 126.37C35.6374 126.088 35.6875 125.892 35.6875 125.782C35.6875 125.73 35.6704 125.681 35.6362 125.635C35.6043 125.59 35.5633 125.558 35.5132 125.54C35.4266 125.508 35.3138 125.492 35.1748 125.492V125.365H36.5591ZM41.5801 125.618V127.45H42.5986C42.863 127.45 43.0396 127.41 43.1284 127.331C43.2469 127.226 43.313 127.041 43.3267 126.777H43.4531V128.39H43.3267C43.2948 128.165 43.2629 128.02 43.231 127.956C43.1899 127.876 43.1227 127.814 43.0293 127.768C42.9359 127.722 42.7923 127.7 42.5986 127.7H41.5801V129.228C41.5801 129.433 41.5892 129.558 41.6074 129.604C41.6257 129.647 41.6576 129.682 41.7031 129.709C41.7487 129.735 41.8353 129.747 41.9629 129.747H42.749C43.0111 129.747 43.2013 129.729 43.3198 129.692C43.4383 129.656 43.5522 129.584 43.6616 129.477C43.8029 129.336 43.9476 129.123 44.0957 128.838H44.2324L43.8325 130H40.2607V129.874H40.4248C40.5342 129.874 40.6379 129.847 40.7358 129.795C40.8088 129.758 40.8577 129.704 40.8828 129.631C40.9102 129.558 40.9238 129.409 40.9238 129.183V126.172C40.9238 125.878 40.8942 125.697 40.835 125.628C40.7529 125.537 40.6162 125.492 40.4248 125.492H40.2607V125.365H43.8325L43.8838 126.38H43.7505C43.7026 126.137 43.6491 125.969 43.5898 125.878C43.5329 125.787 43.4474 125.717 43.3335 125.669C43.2424 125.635 43.0817 125.618 42.8516 125.618H41.5801ZM51.9092 128.718L52.022 128.742L51.6255 130H48.0366V129.874H48.2109C48.4069 129.874 48.547 129.81 48.6313 129.682C48.6792 129.609 48.7031 129.441 48.7031 129.176V126.186C48.7031 125.896 48.6712 125.715 48.6074 125.642C48.5186 125.542 48.3864 125.492 48.2109 125.492H48.0366V125.365H50.1353V125.492C49.8892 125.489 49.716 125.512 49.6157 125.56C49.5177 125.608 49.4505 125.668 49.4141 125.741C49.3776 125.814 49.3594 125.988 49.3594 126.264V129.176C49.3594 129.365 49.3776 129.495 49.4141 129.566C49.4414 129.614 49.4836 129.649 49.5405 129.672C49.5975 129.695 49.7752 129.706 50.0737 129.706H50.4121C50.7676 129.706 51.0171 129.68 51.1606 129.627C51.3042 129.575 51.4352 129.483 51.5537 129.351C51.6722 129.216 51.7907 129.005 51.9092 128.718ZM60.4062 130H59.1689L57.6001 127.833C57.4839 127.838 57.3893 127.84 57.3164 127.84C57.2868 127.84 57.2549 127.84 57.2207 127.84C57.1865 127.838 57.1512 127.835 57.1147 127.833V129.18C57.1147 129.471 57.1466 129.653 57.2104 129.723C57.297 129.823 57.4269 129.874 57.6001 129.874H57.7812V130H55.7954V129.874H55.9697C56.1657 129.874 56.3058 129.81 56.3901 129.682C56.438 129.611 56.4619 129.444 56.4619 129.18V126.186C56.4619 125.894 56.43 125.713 56.3662 125.642C56.2773 125.542 56.1452 125.492 55.9697 125.492H55.7954V125.365H57.4839C57.9761 125.365 58.3384 125.402 58.5708 125.475C58.8055 125.545 59.0037 125.677 59.1655 125.871C59.3296 126.062 59.4116 126.292 59.4116 126.558C59.4116 126.843 59.3182 127.09 59.1313 127.3C58.9468 127.509 58.6597 127.658 58.27 127.744L59.2271 129.074C59.4458 129.379 59.6338 129.582 59.791 129.682C59.9482 129.782 60.1533 129.846 60.4062 129.874V130ZM57.1147 127.618C57.158 127.618 57.1956 127.619 57.2275 127.621C57.2594 127.621 57.2856 127.621 57.3062 127.621C57.7482 127.621 58.0809 127.525 58.3042 127.334C58.5298 127.143 58.6426 126.899 58.6426 126.603C58.6426 126.313 58.5514 126.078 58.3691 125.898C58.1891 125.716 57.9499 125.625 57.6514 125.625C57.5192 125.625 57.3403 125.647 57.1147 125.69V127.618ZM66.791 125.365H68.4077V125.492H68.3188C68.2596 125.492 68.173 125.518 68.0591 125.57C67.9451 125.623 67.8415 125.698 67.748 125.796C67.6546 125.894 67.5396 126.053 67.4028 126.274L66.2852 128.035V129.197C66.2852 129.482 66.3171 129.659 66.3809 129.73C66.4674 129.826 66.6042 129.874 66.791 129.874H66.9414V130H64.9727V129.874H65.1367C65.3327 129.874 65.4717 129.814 65.5537 129.696C65.6038 129.623 65.6289 129.457 65.6289 129.197V128.1L64.3574 126.158C64.207 125.93 64.1045 125.788 64.0498 125.731C63.9974 125.674 63.8869 125.606 63.7183 125.526C63.6727 125.503 63.6066 125.492 63.52 125.492V125.365H65.5024V125.492H65.3999C65.2928 125.492 65.1937 125.517 65.1025 125.567C65.0137 125.617 64.9692 125.692 64.9692 125.792C64.9692 125.875 65.0387 126.023 65.1777 126.237L66.145 127.73L67.0542 126.302C67.1909 126.088 67.2593 125.928 67.2593 125.823C67.2593 125.759 67.2422 125.702 67.208 125.652C67.1761 125.602 67.1294 125.563 67.0679 125.536C67.0063 125.507 66.9141 125.492 66.791 125.492V125.365ZM83.4263 125.365V125.492C83.3055 125.492 83.2075 125.513 83.1323 125.557C83.0571 125.6 82.9854 125.681 82.917 125.799C82.8714 125.879 82.7996 126.069 82.7017 126.37L81.4097 130.106H81.2729L80.2168 127.143L79.1675 130.106H79.0444L77.667 126.257C77.5645 125.97 77.4995 125.8 77.4722 125.748C77.4266 125.661 77.3639 125.598 77.2842 125.557C77.2067 125.513 77.1007 125.492 76.9663 125.492V125.365H78.6821V125.492H78.6001C78.4793 125.492 78.387 125.519 78.3232 125.574C78.2594 125.628 78.2275 125.694 78.2275 125.772C78.2275 125.852 78.2777 126.035 78.3779 126.322L79.2905 128.923L80.0596 126.712L79.9229 126.322L79.8135 126.011C79.7656 125.897 79.7121 125.797 79.6528 125.71C79.6232 125.667 79.5868 125.631 79.5435 125.601C79.4865 125.56 79.4295 125.53 79.3726 125.512C79.3293 125.499 79.2609 125.492 79.1675 125.492V125.365H80.9722V125.492H80.8491C80.7215 125.492 80.6281 125.519 80.5688 125.574C80.5096 125.628 80.48 125.702 80.48 125.796C80.48 125.912 80.5312 126.115 80.6338 126.404L81.5225 128.923L82.4043 126.37C82.5046 126.088 82.5547 125.892 82.5547 125.782C82.5547 125.73 82.5376 125.681 82.5034 125.635C82.4715 125.59 82.4305 125.558 82.3804 125.54C82.2938 125.508 82.181 125.492 82.042 125.492V125.365H83.4263ZM89.1445 129.874V130H87.1587V129.874H87.3228C87.5142 129.874 87.6532 129.818 87.7397 129.706C87.7944 129.633 87.8218 129.458 87.8218 129.18V126.186C87.8218 125.951 87.807 125.796 87.7773 125.721C87.7546 125.664 87.7078 125.615 87.6372 125.574C87.5369 125.519 87.4321 125.492 87.3228 125.492H87.1587V125.365H89.1445V125.492H88.9771C88.7879 125.492 88.6501 125.548 88.5635 125.659C88.5065 125.732 88.478 125.908 88.478 126.186V129.18C88.478 129.414 88.4928 129.569 88.5225 129.645C88.5452 129.701 88.5931 129.75 88.666 129.792C88.764 129.846 88.8677 129.874 88.9771 129.874H89.1445ZM96.8657 125.365L96.917 126.452H96.7871C96.762 126.261 96.7279 126.124 96.6846 126.042C96.6139 125.91 96.5194 125.813 96.4009 125.751C96.2847 125.688 96.1309 125.656 95.9395 125.656H95.2866V129.197C95.2866 129.482 95.3174 129.659 95.3789 129.73C95.4655 129.826 95.5988 129.874 95.7788 129.874H95.9395V130H93.9741V129.874H94.1382C94.3341 129.874 94.4731 129.814 94.5552 129.696C94.6053 129.623 94.6304 129.457 94.6304 129.197V125.656H94.0732C93.8568 125.656 93.703 125.672 93.6118 125.704C93.4933 125.747 93.3919 125.83 93.3076 125.953C93.2233 126.076 93.1732 126.243 93.1572 126.452H93.0273L93.082 125.365H96.8657ZM102.034 127.515H104.187V126.189C104.187 125.952 104.172 125.796 104.143 125.721C104.12 125.664 104.072 125.615 103.999 125.574C103.901 125.519 103.797 125.492 103.688 125.492H103.524V125.365H105.506V125.492H105.342C105.233 125.492 105.129 125.518 105.031 125.57C104.958 125.607 104.908 125.663 104.881 125.738C104.856 125.811 104.843 125.961 104.843 126.189V129.18C104.843 129.414 104.858 129.569 104.888 129.645C104.91 129.701 104.957 129.75 105.028 129.792C105.128 129.846 105.233 129.874 105.342 129.874H105.506V130H103.524V129.874H103.688C103.877 129.874 104.015 129.818 104.102 129.706C104.159 129.633 104.187 129.458 104.187 129.18V127.768H102.034V129.18C102.034 129.414 102.049 129.569 102.078 129.645C102.101 129.701 102.149 129.75 102.222 129.792C102.32 129.846 102.423 129.874 102.533 129.874H102.7V130H100.714V129.874H100.878C101.07 129.874 101.209 129.818 101.295 129.706C101.35 129.633 101.377 129.458 101.377 129.18V126.189C101.377 125.952 101.363 125.796 101.333 125.721C101.31 125.664 101.264 125.615 101.193 125.574C101.093 125.519 100.988 125.492 100.878 125.492H100.714V125.365H102.7V125.492H102.533C102.423 125.492 102.32 125.518 102.222 125.57C102.151 125.607 102.102 125.663 102.075 125.738C102.047 125.811 102.034 125.961 102.034 126.189V127.515ZM118.7 125.259L118.819 126.722H118.7C118.579 126.358 118.423 126.083 118.231 125.898C117.956 125.632 117.601 125.499 117.168 125.499C116.578 125.499 116.129 125.732 115.822 126.199C115.564 126.593 115.436 127.063 115.436 127.607C115.436 128.049 115.521 128.453 115.692 128.817C115.863 129.182 116.086 129.45 116.362 129.621C116.64 129.789 116.925 129.874 117.216 129.874C117.387 129.874 117.552 129.852 117.712 129.809C117.871 129.765 118.025 129.701 118.173 129.617V128.277C118.173 128.045 118.155 127.893 118.119 127.823C118.084 127.75 118.03 127.695 117.955 127.659C117.882 127.62 117.752 127.601 117.565 127.601V127.471H119.359V127.601H119.274C119.096 127.601 118.974 127.66 118.908 127.778C118.863 127.863 118.84 128.029 118.84 128.277V129.696C118.578 129.837 118.319 129.941 118.064 130.007C117.809 130.073 117.525 130.106 117.213 130.106C116.317 130.106 115.637 129.819 115.172 129.245C114.824 128.814 114.649 128.317 114.649 127.754C114.649 127.347 114.747 126.956 114.943 126.582C115.176 126.138 115.495 125.796 115.9 125.557C116.24 125.358 116.641 125.259 117.104 125.259C117.272 125.259 117.425 125.273 117.562 125.3C117.701 125.328 117.896 125.388 118.149 125.481C118.277 125.529 118.362 125.553 118.406 125.553C118.449 125.553 118.486 125.534 118.515 125.495C118.547 125.454 118.566 125.375 118.573 125.259H118.7ZM124.425 125.618V127.45H125.443C125.708 127.45 125.884 127.41 125.973 127.331C126.092 127.226 126.158 127.041 126.171 126.777H126.298V128.39H126.171C126.139 128.165 126.108 128.02 126.076 127.956C126.035 127.876 125.967 127.814 125.874 127.768C125.781 127.722 125.637 127.7 125.443 127.7H124.425V129.228C124.425 129.433 124.434 129.558 124.452 129.604C124.47 129.647 124.502 129.682 124.548 129.709C124.593 129.735 124.68 129.747 124.808 129.747H125.594C125.856 129.747 126.046 129.729 126.165 129.692C126.283 129.656 126.397 129.584 126.506 129.477C126.648 129.336 126.792 129.123 126.94 128.838H127.077L126.677 130H123.105V129.874H123.27C123.379 129.874 123.483 129.847 123.581 129.795C123.653 129.758 123.702 129.704 123.728 129.631C123.755 129.558 123.769 129.409 123.769 129.183V126.172C123.769 125.878 123.739 125.697 123.68 125.628C123.598 125.537 123.461 125.492 123.27 125.492H123.105V125.365H126.677L126.729 126.38H126.595C126.547 126.137 126.494 125.969 126.435 125.878C126.378 125.787 126.292 125.717 126.178 125.669C126.087 125.635 125.926 125.618 125.696 125.618H124.425ZM133.605 130L131.814 126.1V129.197C131.814 129.482 131.845 129.659 131.907 129.73C131.991 129.826 132.124 129.874 132.307 129.874H132.471V130H130.857V129.874H131.021C131.217 129.874 131.356 129.814 131.438 129.696C131.489 129.623 131.514 129.457 131.514 129.197V126.168C131.514 125.963 131.491 125.815 131.445 125.724C131.413 125.658 131.354 125.603 131.268 125.56C131.183 125.514 131.047 125.492 130.857 125.492V125.365H132.17L133.852 128.992L135.506 125.365H136.818V125.492H136.658C136.459 125.492 136.319 125.551 136.237 125.669C136.187 125.742 136.162 125.909 136.162 126.168V129.197C136.162 129.482 136.194 129.659 136.258 129.73C136.342 129.826 136.475 129.874 136.658 129.874H136.818V130H134.85V129.874H135.014C135.212 129.874 135.351 129.814 135.431 129.696C135.481 129.623 135.506 129.457 135.506 129.197V126.1L133.718 130H133.605ZM143.678 125.259V126.862H143.552C143.511 126.555 143.437 126.31 143.33 126.127C143.225 125.945 143.074 125.8 142.878 125.693C142.682 125.586 142.48 125.533 142.27 125.533C142.033 125.533 141.837 125.606 141.682 125.751C141.527 125.895 141.45 126.059 141.45 126.244C141.45 126.385 141.499 126.514 141.597 126.63C141.738 126.801 142.074 127.029 142.605 127.313C143.038 127.546 143.333 127.725 143.49 127.85C143.65 127.973 143.772 128.119 143.856 128.288C143.943 128.456 143.986 128.633 143.986 128.817C143.986 129.168 143.849 129.471 143.576 129.727C143.305 129.979 142.955 130.106 142.526 130.106C142.392 130.106 142.265 130.096 142.147 130.075C142.076 130.064 141.929 130.023 141.706 129.952C141.485 129.879 141.345 129.843 141.286 129.843C141.229 129.843 141.183 129.86 141.149 129.894C141.117 129.928 141.093 129.999 141.077 130.106H140.951V128.517H141.077C141.136 128.849 141.216 129.099 141.316 129.265C141.417 129.429 141.569 129.566 141.774 129.675C141.982 129.785 142.208 129.839 142.455 129.839C142.739 129.839 142.964 129.764 143.128 129.614C143.294 129.463 143.377 129.286 143.377 129.081C143.377 128.967 143.346 128.852 143.282 128.735C143.22 128.619 143.123 128.511 142.991 128.411C142.902 128.342 142.66 128.198 142.263 127.977C141.867 127.753 141.584 127.576 141.416 127.443C141.249 127.311 141.123 127.165 141.036 127.006C140.95 126.846 140.906 126.671 140.906 126.479C140.906 126.147 141.034 125.861 141.289 125.622C141.544 125.38 141.869 125.259 142.263 125.259C142.509 125.259 142.77 125.32 143.046 125.44C143.174 125.497 143.264 125.526 143.316 125.526C143.375 125.526 143.423 125.509 143.459 125.475C143.498 125.438 143.529 125.366 143.552 125.259H143.678ZM151.916 125.365L151.967 126.452H151.837C151.812 126.261 151.778 126.124 151.734 126.042C151.664 125.91 151.569 125.813 151.451 125.751C151.334 125.688 151.181 125.656 150.989 125.656H150.336V129.197C150.336 129.482 150.367 129.659 150.429 129.73C150.515 129.826 150.649 129.874 150.829 129.874H150.989V130H149.024V129.874H149.188C149.384 129.874 149.523 129.814 149.605 129.696C149.655 129.623 149.68 129.457 149.68 129.197V125.656H149.123C148.907 125.656 148.753 125.672 148.662 125.704C148.543 125.747 148.442 125.83 148.357 125.953C148.273 126.076 148.223 126.243 148.207 126.452H148.077L148.132 125.365H151.916ZM158.075 125.259C158.676 125.259 159.197 125.488 159.637 125.946C160.079 126.402 160.3 126.972 160.3 127.655C160.3 128.359 160.078 128.944 159.633 129.409C159.189 129.874 158.651 130.106 158.02 130.106C157.382 130.106 156.845 129.879 156.41 129.426C155.977 128.972 155.761 128.386 155.761 127.666C155.761 126.93 156.011 126.329 156.513 125.864C156.948 125.461 157.469 125.259 158.075 125.259ZM158.01 125.509C157.595 125.509 157.262 125.663 157.012 125.97C156.7 126.353 156.543 126.914 156.543 127.652C156.543 128.408 156.705 128.991 157.029 129.398C157.277 129.708 157.605 129.863 158.013 129.863C158.448 129.863 158.807 129.694 159.09 129.354C159.375 129.014 159.517 128.479 159.517 127.748C159.517 126.955 159.361 126.363 159.049 125.974C158.798 125.664 158.452 125.509 158.01 125.509ZM163.981 125.365H165.239L168.072 128.841V126.168C168.072 125.884 168.04 125.706 167.977 125.635C167.892 125.54 167.759 125.492 167.577 125.492H167.416V125.365H169.029V125.492H168.865C168.669 125.492 168.53 125.551 168.448 125.669C168.398 125.742 168.373 125.909 168.373 126.168V130.075H168.25L165.194 126.343V129.197C165.194 129.482 165.225 129.659 165.287 129.73C165.373 129.826 165.507 129.874 165.687 129.874H165.851V130H164.237V129.874H164.398C164.596 129.874 164.736 129.814 164.818 129.696C164.868 129.623 164.894 129.457 164.894 129.197V125.974C164.759 125.816 164.657 125.713 164.586 125.663C164.518 125.612 164.416 125.566 164.282 125.522C164.216 125.502 164.115 125.492 163.981 125.492V125.365ZM174.095 125.618V127.45H175.113C175.378 127.45 175.554 127.41 175.643 127.331C175.762 127.226 175.828 127.041 175.841 126.777H175.968V128.39H175.841C175.809 128.165 175.778 128.02 175.746 127.956C175.705 127.876 175.637 127.814 175.544 127.768C175.451 127.722 175.307 127.7 175.113 127.7H174.095V129.228C174.095 129.433 174.104 129.558 174.122 129.604C174.14 129.647 174.172 129.682 174.218 129.709C174.263 129.735 174.35 129.747 174.478 129.747H175.264C175.526 129.747 175.716 129.729 175.834 129.692C175.953 129.656 176.067 129.584 176.176 129.477C176.318 129.336 176.462 129.123 176.61 128.838H176.747L176.347 130H172.775V129.874H172.939C173.049 129.874 173.153 129.847 173.25 129.795C173.323 129.758 173.372 129.704 173.397 129.631C173.425 129.558 173.438 129.409 173.438 129.183V126.172C173.438 125.878 173.409 125.697 173.35 125.628C173.268 125.537 173.131 125.492 172.939 125.492H172.775V125.365H176.347L176.398 126.38H176.265C176.217 126.137 176.164 125.969 176.104 125.878C176.048 125.787 175.962 125.717 175.848 125.669C175.757 125.635 175.596 125.618 175.366 125.618H174.095Z" fill="white"/>
</svg>
